<svg width="29" height="29" viewBox="0 0 29 29" fill="none" xmlns="http://www.w3.org/2000/svg">
<path d="M21.75 9.66668H20.5417V7.25001C20.5417 3.91501 17.835 1.20835 14.5 1.20835C11.165 1.20835 8.45837 3.91501 8.45837 7.25001V9.66668H7.25004C5.92087 9.66668 4.83337 10.7542 4.83337 12.0833V24.1667C4.83337 25.4958 5.92087 26.5833 7.25004 26.5833H21.75C23.0792 26.5833 24.1667 25.4958 24.1667 24.1667V12.0833C24.1667 10.7542 23.0792 9.66668 21.75 9.66668ZM14.5 20.5417C13.1709 20.5417 12.0834 19.4542 12.0834 18.125C12.0834 16.7958 13.1709 15.7083 14.5 15.7083C15.8292 15.7083 16.9167 16.7958 16.9167 18.125C16.9167 19.4542 15.8292 20.5417 14.5 20.5417ZM10.875 9.66668V7.25001C10.875 5.24418 12.4942 3.62501 14.5 3.62501C16.5059 3.62501 18.125 5.24418 18.125 7.25001V9.66668H10.875Z" fill="black" fill-opacity="0.54"/>
</svg>
